<svg width="512" height="512" viewBox="0 0 512 512" fill="none" xmlns="http://www.w3.org/2000/svg">
  <!-- Book base -->
  <rect x="96" y="128" width="320" height="256" rx="16" fill="#4F46E5" />
  
  <!-- Book pages -->
  <rect x="106" y="138" width="300" height="236" rx="8" fill="#F9FAFB" />
  
  <!-- Book spine -->
  <rect x="96" y="128" width="30" height="256" rx="8" fill="#312E81" />
  
  <!-- Graph line -->
  <path d="M156 278L206 228L256 258L306 198L356 238" stroke="#10B981" stroke-width="8" stroke-linecap="round" stroke-linejoin="round" />
  
  <!-- Dots on graph -->
  <circle cx="156" cy="278" r="8" fill="#10B981" />
  <circle cx="206" cy="228" r="8" fill="#10B981" />
  <circle cx="256" cy="258" r="8" fill="#10B981" />
  <circle cx="306" cy="198" r="8" fill="#10B981" />
  <circle cx="356" cy="238" r="8" fill="#10B981" />
  
  <!-- Graduation cap -->
  <path d="M256 96L356 146L256 196L156 146L256 96Z" fill="#8B5CF6" />
  <rect x="246" y="196" width="20" height="40" fill="#8B5CF6" />
  <rect x="236" y="236" width="40" height="10" rx="5" fill="#8B5CF6" />
</svg>